<svg width="142" height="169" viewBox="0 0 142 169" fill="none" xmlns="http://www.w3.org/2000/svg">
<ellipse cx="72.074" cy="111.251" rx="25.6461" ry="4.48807" fill="#C4C4C4" fill-opacity="0.5"/>
<path d="M114.656 38.148C113.515 28.7819 109.398 19.7602 102.252 12.6462C97.2297 7.63857 91.3029 4.12793 84.9958 2.10104C70.8605 -2.46941 54.8502 0.458325 43.0883 10.8843C42.4458 11.4539 41.8295 12.0368 41.2132 12.6462C35.9944 17.8393 32.4016 24.0524 30.3954 30.6763C28.8088 35.8694 28.2056 41.3142 28.5859 46.706C29.2808 57.2114 33.6342 67.5446 41.541 75.5329L66.4416 100.69C69.3657 103.658 74.1124 103.658 77.0365 100.69L88.9557 88.6481L101.937 75.5329C111.994 65.372 116.308 51.4222 114.656 38.148Z" fill="url(#paint0_linear)"/>
<path d="M71.7385 53.7408C79.1759 53.7408 85.205 47.6495 85.205 40.1354C85.205 32.6214 79.1759 26.5301 71.7385 26.5301C64.3011 26.5301 58.272 32.6214 58.272 40.1354C58.272 47.6495 64.3011 53.7408 71.7385 53.7408Z" fill="white"/>
<path d="M90.6075 39.1418L90.5681 41.1025C90.3583 51.3695 81.9139 59.7288 71.7517 59.7288C61.5895 59.7288 53.132 51.3695 52.9222 41.0893L52.8828 39.1286H40.5964L40.6227 41.1555C40.8849 58.245 54.8366 72.1286 71.7386 72.1286C88.6406 72.1286 102.605 58.2318 102.841 41.1555L102.868 39.1286H90.6075V39.1418Z" fill="white"/>
<path d="M10.3462 138C13.3268 138 15.9578 138.63 18.2457 139.896C20.5336 141.161 22.294 142.923 23.5269 145.181C24.7598 147.439 25.3826 150.016 25.3826 152.916C25.3826 155.817 24.7661 158.393 23.5269 160.651C22.294 162.909 20.5336 164.671 18.2457 165.937C15.9578 167.203 13.3268 167.832 10.3462 167.832H0V138H10.3462ZM16.6251 159.888C18.1122 158.138 18.8622 155.817 18.8622 152.922C18.8622 150.022 18.1186 147.7 16.6251 145.951C15.1317 144.202 13.0408 143.33 10.3462 143.33H6.38695V162.508H10.3462C13.0408 162.508 15.138 161.63 16.6251 159.888Z" fill="black"/>
<path d="M49.4306 167.832H44.105L43.5521 165.193C42.7831 166.102 41.8934 166.815 40.8702 167.323C39.847 167.832 38.6014 168.093 37.1206 168.093C34.5658 168.093 32.4814 167.304 30.8608 165.727C29.2402 164.149 28.4331 161.516 28.4331 157.82V145.926H34.4387V157.089C34.4387 159.08 34.7883 160.575 35.481 161.586C36.1737 162.591 37.2477 163.1 38.6967 163.1C40.2029 163.1 41.3659 162.54 42.1857 161.414C43.0119 160.295 43.4186 158.724 43.4186 156.707V145.926H49.4243V167.832H49.4306Z" fill="black"/>
<path d="M74.9402 155.944V167.832H68.9345V156.287C68.9345 152.509 67.4601 150.62 64.505 150.62C62.9416 150.62 61.7341 151.148 60.8825 152.197C60.0309 153.247 59.6051 154.729 59.6051 156.631V167.839H53.5995V145.926H58.8361L59.3891 148.654C60.158 147.719 61.0795 146.988 62.1536 146.46C63.2339 145.932 64.5685 145.671 66.1573 145.671C68.7121 145.671 70.8157 146.466 72.4616 148.056C74.114 149.653 74.9402 152.28 74.9402 155.944Z" fill="black"/>
<path d="M100.164 150.893C101.028 152.585 101.46 154.564 101.46 156.841C101.46 159.054 101.028 161.02 100.164 162.725C99.2996 164.429 98.0985 165.752 96.5669 166.687C95.0353 167.622 93.3003 168.093 91.3747 168.093C89.8431 168.093 88.5085 167.8 87.3709 167.222C86.2334 166.636 85.2992 165.848 84.562 164.855L83.9646 167.839H78.7279V138.006H84.7335V148.705C86.405 146.689 88.6102 145.678 91.3302 145.678C93.2876 145.678 95.0353 146.123 96.5669 147.02C98.0985 147.91 99.2996 149.201 100.164 150.893ZM95.3785 156.879C95.3785 155.002 94.8828 153.482 93.8914 152.318C92.8999 151.154 91.5908 150.569 89.9766 150.569C88.3623 150.569 87.0659 151.141 86.0999 152.293C85.1339 153.444 84.6509 154.958 84.6509 156.834C84.6509 158.736 85.1339 160.269 86.0999 161.44C87.0659 162.604 88.356 163.189 89.9766 163.189C91.5971 163.189 92.8999 162.604 93.8914 161.44C94.8764 160.276 95.3785 158.755 95.3785 156.879Z" fill="black"/>
<path d="M126.328 167.832H123.265C120.513 167.832 119.166 166.636 119.217 164.251C118.422 165.498 117.444 166.452 116.281 167.107C115.118 167.762 113.713 168.087 112.067 168.087C109.627 168.087 107.663 167.527 106.17 166.401C104.676 165.282 103.933 163.698 103.933 161.65C103.933 159.321 104.791 157.521 106.506 156.256C108.222 154.99 110.714 154.36 113.98 154.36H118.321V153.298C118.321 152.306 117.952 151.517 117.215 150.932C116.478 150.346 115.486 150.06 114.234 150.06C113.129 150.06 112.22 150.302 111.508 150.785C110.796 151.269 110.37 151.924 110.231 152.744H104.441C104.638 150.499 105.636 148.763 107.422 147.522C109.207 146.288 111.578 145.665 114.533 145.665C117.628 145.665 120.018 146.345 121.708 147.713C123.398 149.074 124.244 151.052 124.244 153.635V161.351C124.244 161.891 124.358 162.26 124.587 162.457C124.816 162.655 125.172 162.756 125.648 162.756H126.328V167.832ZM113.942 158.374C112.69 158.374 111.718 158.622 111.025 159.118C110.332 159.614 109.983 160.32 109.983 161.23C109.983 161.999 110.275 162.61 110.853 163.062C111.438 163.513 112.226 163.742 113.218 163.742C114.781 163.742 116.014 163.297 116.923 162.4C117.831 161.503 118.302 160.307 118.327 158.8V158.374H113.942V158.374Z" fill="black"/>
<path d="M142 151.383H139.617C137.914 151.383 136.668 151.892 135.867 152.916C135.073 153.94 134.673 155.333 134.673 157.095V167.832H128.667V145.926H134.12L134.673 149.208C135.327 148.126 136.134 147.312 137.1 146.759C138.066 146.205 139.356 145.926 140.977 145.926H142V151.383V151.383Z" fill="black"/>
<defs>
<linearGradient id="paint0_linear" x1="45.2681" y1="0.18211" x2="102.94" y2="93.2717" gradientUnits="userSpaceOnUse">
<stop stop-color="#FED457"/>
<stop offset="0.2167" stop-color="#FB7B53"/>
<stop offset="0.3202" stop-color="#FF65A9"/>
<stop offset="0.4335" stop-color="#F34EFE"/>
<stop offset="0.532" stop-color="#A87DF6"/>
<stop offset="0.6502" stop-color="#62A7F2"/>
<stop offset="0.7537" stop-color="#07DDEA"/>
<stop offset="0.8719" stop-color="#42EEAF"/>
<stop offset="1" stop-color="#72FE72"/>
</linearGradient>
</defs>
</svg>
