<svg width="142" height="141" viewBox="0 0 142 141" fill="none" xmlns="http://www.w3.org/2000/svg">
<g filter="url(#filter0_d)">
<path d="M104.97 40.491C104.08 33.1869 100.869 26.1514 95.2963 20.6036C91.3798 16.6984 86.7578 13.9607 81.8392 12.38C70.8159 8.81575 58.3303 11.0989 49.1578 19.2295C48.6568 19.6738 48.1762 20.1284 47.6956 20.6036C43.6257 24.6534 40.8239 29.4987 39.2594 34.6643C38.022 38.7141 37.5517 42.9602 37.8482 47.165C38.3902 55.3576 41.7851 63.4158 47.9512 69.6455L67.3698 89.2644C69.6502 91.5785 73.3519 91.5785 75.6322 89.2644L84.9274 79.8734L95.0508 69.6455C102.894 61.7215 106.258 50.8428 104.97 40.491Z" fill="url(#paint0_linear)"/>
</g>
<path d="M71.5006 52.651C77.3006 52.651 82.0024 47.9007 82.0024 42.0409C82.0024 36.1811 77.3006 31.4308 71.5006 31.4308C65.7006 31.4308 60.9988 36.1811 60.9988 42.0409C60.9988 47.9007 65.7006 52.651 71.5006 52.651Z" fill="white"/>
<path d="M86.2155 41.2661L86.1848 42.7951C86.0212 50.8017 79.4358 57.3207 71.5109 57.3207C63.586 57.3207 56.9904 50.8017 56.8268 42.7848L56.7961 41.2558H47.2146L47.2351 42.8364C47.4396 56.1636 58.3197 66.9907 71.5007 66.9907C84.6816 66.9907 95.572 56.1533 95.7561 42.8364L95.7765 41.2558H86.2155V41.2661Z" fill="white"/>
<path d="M10.3462 110C13.3268 110 15.9578 110.63 18.2457 111.896C20.5336 113.161 22.294 114.923 23.5269 117.181C24.7598 119.439 25.3826 122.016 25.3826 124.916C25.3826 127.817 24.7661 130.393 23.5269 132.651C22.294 134.909 20.5336 136.671 18.2457 137.937C15.9578 139.203 13.3268 139.832 10.3462 139.832H0V110H10.3462ZM16.6251 131.888C18.1122 130.138 18.8622 127.817 18.8622 124.922C18.8622 122.022 18.1186 119.7 16.6251 117.951C15.1317 116.202 13.0408 115.33 10.3462 115.33H6.38695V134.508H10.3462C13.0408 134.508 15.138 133.63 16.6251 131.888Z" fill="black"/>
<path d="M49.4306 139.832H44.105L43.5521 137.193C42.7831 138.102 41.8934 138.815 40.8702 139.323C39.847 139.832 38.6014 140.093 37.1206 140.093C34.5658 140.093 32.4814 139.304 30.8608 137.727C29.2402 136.149 28.4331 133.516 28.4331 129.82V117.926H34.4387V129.089C34.4387 131.08 34.7883 132.575 35.481 133.586C36.1737 134.591 37.2477 135.1 38.6967 135.1C40.2029 135.1 41.3659 134.54 42.1857 133.414C43.0119 132.295 43.4186 130.724 43.4186 128.707V117.926H49.4243V139.832H49.4306Z" fill="black"/>
<path d="M74.9402 127.944V139.832H68.9345V128.287C68.9345 124.509 67.4601 122.62 64.505 122.62C62.9416 122.62 61.7341 123.148 60.8825 124.197C60.0309 125.247 59.6051 126.729 59.6051 128.631V139.839H53.5995V117.926H58.8361L59.3891 120.654C60.158 119.719 61.0795 118.988 62.1536 118.46C63.2339 117.932 64.5685 117.671 66.1573 117.671C68.7121 117.671 70.8157 118.466 72.4616 120.056C74.114 121.653 74.9402 124.28 74.9402 127.944Z" fill="black"/>
<path d="M100.164 122.893C101.028 124.585 101.46 126.564 101.46 128.841C101.46 131.054 101.028 133.02 100.164 134.725C99.2996 136.429 98.0985 137.752 96.5669 138.687C95.0353 139.622 93.3003 140.093 91.3747 140.093C89.8431 140.093 88.5085 139.8 87.3709 139.222C86.2334 138.636 85.2992 137.848 84.562 136.855L83.9646 139.839H78.7279V110.006H84.7335V120.705C86.405 118.689 88.6102 117.678 91.3302 117.678C93.2876 117.678 95.0353 118.123 96.5669 119.02C98.0985 119.91 99.2996 121.201 100.164 122.893ZM95.3785 128.879C95.3785 127.002 94.8828 125.482 93.8914 124.318C92.8999 123.154 91.5908 122.569 89.9766 122.569C88.3623 122.569 87.0659 123.141 86.0999 124.293C85.1339 125.444 84.6509 126.958 84.6509 128.834C84.6509 130.736 85.1339 132.269 86.0999 133.44C87.0659 134.604 88.356 135.189 89.9766 135.189C91.5971 135.189 92.8999 134.604 93.8914 133.44C94.8764 132.276 95.3785 130.755 95.3785 128.879Z" fill="black"/>
<path d="M126.328 139.832H123.265C120.513 139.832 119.166 138.636 119.217 136.251C118.422 137.498 117.444 138.452 116.281 139.107C115.118 139.762 113.713 140.087 112.067 140.087C109.627 140.087 107.663 139.527 106.17 138.401C104.676 137.282 103.933 135.698 103.933 133.65C103.933 131.321 104.791 129.521 106.506 128.256C108.222 126.99 110.714 126.36 113.98 126.36H118.321V125.298C118.321 124.306 117.952 123.517 117.215 122.932C116.478 122.346 115.486 122.06 114.234 122.06C113.129 122.06 112.22 122.302 111.508 122.785C110.796 123.269 110.37 123.924 110.231 124.744H104.441C104.638 122.499 105.636 120.763 107.422 119.522C109.207 118.288 111.578 117.665 114.533 117.665C117.628 117.665 120.018 118.345 121.708 119.713C123.398 121.074 124.244 123.052 124.244 125.635V133.351C124.244 133.891 124.358 134.26 124.587 134.457C124.816 134.655 125.172 134.756 125.648 134.756H126.328V139.832ZM113.942 130.374C112.69 130.374 111.718 130.622 111.025 131.118C110.332 131.614 109.983 132.32 109.983 133.23C109.983 133.999 110.275 134.61 110.853 135.062C111.438 135.513 112.226 135.742 113.218 135.742C114.781 135.742 116.014 135.297 116.923 134.4C117.831 133.503 118.302 132.307 118.327 130.8V130.374H113.942Z" fill="black"/>
<path d="M142 123.383H139.617C137.914 123.383 136.668 123.892 135.867 124.916C135.073 125.94 134.673 127.333 134.673 129.095V139.832H128.667V117.926H134.12L134.673 121.208C135.327 120.126 136.134 119.312 137.1 118.759C138.066 118.205 139.356 117.926 140.977 117.926H142V123.383Z" fill="black"/>
<defs>
<filter id="filter0_d" x="14.7622" y="0.75058" width="113.476" height="126.249" filterUnits="userSpaceOnUse" color-interpolation-filters="sRGB">
<feFlood flood-opacity="0" result="BackgroundImageFix"/>
<feColorMatrix in="SourceAlpha" type="matrix" values="0 0 0 0 0 0 0 0 0 0 0 0 0 0 0 0 0 0 127 0"/>
<feOffset dy="13"/>
<feGaussianBlur stdDeviation="11.5"/>
<feColorMatrix type="matrix" values="0 0 0 0 0 0 0 0 0 0 0 0 0 0 0 0 0 0 0.25 0"/>
<feBlend mode="normal" in2="BackgroundImageFix" result="effect1_dropShadow"/>
<feBlend mode="normal" in="SourceGraphic" in2="effect1_dropShadow" result="shape"/>
</filter>
<linearGradient id="paint0_linear" x1="50.8578" y1="10.8835" x2="95.8329" y2="83.479" gradientUnits="userSpaceOnUse">
<stop stop-color="#FED457"/>
<stop offset="0.2167" stop-color="#FB7B53"/>
<stop offset="0.3202" stop-color="#FF65A9"/>
<stop offset="0.4335" stop-color="#F34EFE"/>
<stop offset="0.532" stop-color="#A87DF6"/>
<stop offset="0.6502" stop-color="#62A7F2"/>
<stop offset="0.7537" stop-color="#07DDEA"/>
<stop offset="0.8719" stop-color="#42EEAF"/>
<stop offset="1" stop-color="#72FE72"/>
</linearGradient>
</defs>
</svg>
