<svg width="30" height="30" viewBox="0 0 30 30" fill="none" xmlns="http://www.w3.org/2000/svg">
<circle cx="15" cy="15" r="15" fill="#F05E23"/>
<path d="M22.2 8H7.8C6.81 8 6.009 8.7875 6.009 9.75L6 20.25C6 21.2125 6.81 22 7.8 22H22.2C23.19 22 24 21.2125 24 20.25V9.75C24 8.7875 23.19 8 22.2 8ZM21.84 11.7188L15.477 15.5863C15.189 15.7613 14.811 15.7613 14.523 15.5863L8.16 11.7188C8.06975 11.6695 7.99073 11.603 7.9277 11.5231C7.86467 11.4433 7.81896 11.3519 7.79332 11.2544C7.76768 11.157 7.76265 11.0554 7.77854 10.956C7.79443 10.8566 7.8309 10.7613 7.88575 10.676C7.9406 10.5907 8.01269 10.5171 8.09765 10.4596C8.18262 10.4022 8.27868 10.3621 8.38005 10.3418C8.48141 10.3215 8.58595 10.3213 8.68736 10.3415C8.78876 10.3616 8.88492 10.4015 8.97 10.4587L15 14.125L21.03 10.4587C21.1151 10.4015 21.2112 10.3616 21.3126 10.3415C21.414 10.3213 21.5186 10.3215 21.62 10.3418C21.7213 10.3621 21.8174 10.4022 21.9023 10.4596C21.9873 10.5171 22.0594 10.5907 22.1142 10.676C22.1691 10.7613 22.2056 10.8566 22.2215 10.956C22.2373 11.0554 22.2323 11.157 22.2067 11.2544C22.181 11.3519 22.1353 11.4433 22.0723 11.5231C22.0093 11.603 21.9302 11.6695 21.84 11.7188V11.7188Z" fill="white"/>
</svg>
